<svg width="18" height="18" viewBox="0 0 18 18" fill="none" xmlns="http://www.w3.org/2000/svg">
<g id="CaretRight">
<path id="Vector" d="M12.7729 9.39798L7.14792 15.023C7.09565 15.0752 7.03361 15.1167 6.96533 15.145C6.89704 15.1733 6.82386 15.1878 6.74995 15.1878C6.67604 15.1878 6.60285 15.1733 6.53457 15.145C6.46628 15.1167 6.40424 15.0752 6.35198 15.023C6.29972 14.9707 6.25826 14.9087 6.22998 14.8404C6.20169 14.7721 6.18713 14.6989 6.18713 14.625C6.18713 14.5511 6.20169 14.4779 6.22998 14.4096C6.25826 14.3413 6.29972 14.2793 6.35198 14.227L11.5797 9.00001L6.35198 3.77298C6.24643 3.66743 6.18713 3.52427 6.18713 3.37501C6.18713 3.22574 6.24643 3.08259 6.35198 2.97704C6.45753 2.87149 6.60068 2.81219 6.74995 2.81219C6.89921 2.81219 7.04237 2.87149 7.14792 2.97704L12.7729 8.60204C12.8252 8.65428 12.8667 8.71632 12.895 8.7846C12.9233 8.85289 12.9379 8.92609 12.9379 9.00001C12.9379 9.07393 12.9233 9.14713 12.895 9.21541C12.8667 9.2837 12.8252 9.34574 12.7729 9.39798Z" fill="white"/>
</g>
</svg>
